<?xml version="1.0" encoding="UTF-8" standalone="no"?>
<!DOCTYPE svg PUBLIC "-//W3C//DTD SVG 1.1//EN"
 "http://www.w3.org/Graphics/SVG/1.1/DTD/svg11.dtd">
<!-- Generated by graphviz version 12.2.1 (20241206.2353)
 -->
<!-- Pages: 1 -->
<svg width="578pt" height="127pt"
 viewBox="0.00 0.00 578.00 127.00" xmlns="http://www.w3.org/2000/svg" xmlns:xlink="http://www.w3.org/1999/xlink">
<g id="graph0" class="graph" transform="scale(1 1) rotate(0) translate(4 123)">
<polygon fill="white" stroke="none" points="-4,4 -4,-123 574,-123 574,4 -4,4"/>
<!-- 2341859095088 -->
<g id="node1" class="node">
<title>2341859095088</title>
<polygon fill="none" stroke="black" points="234.12,-27.5 234.12,-63.5 340.38,-63.5 340.38,-27.5 234.12,-27.5"/>
<text text-anchor="middle" x="245.12" y="-40.7" font-family="Times New Roman,serif" font-size="14.00">e</text>
<polyline fill="none" stroke="black" points="256.12,-28 256.12,-63.5"/>
<text text-anchor="middle" x="298.25" y="-40.7" font-family="Times New Roman,serif" font-size="14.00">data &#45;6.0000</text>
</g>
<!-- 2341859095392+ -->
<g id="node7" class="node">
<title>2341859095392+</title>
<ellipse fill="none" stroke="black" cx="404.5" cy="-72.5" rx="27" ry="18"/>
<text text-anchor="middle" x="404.5" y="-67.45" font-family="Times New Roman,serif" font-size="14.00">+</text>
</g>
<!-- 2341859095088&#45;&gt;2341859095392+ -->
<g id="edge6" class="edge">
<title>2341859095088&#45;&gt;2341859095392+</title>
<path fill="none" stroke="black" d="M340.82,-57.81C349.88,-59.94 359.11,-62.1 367.6,-64.09"/>
<polygon fill="black" stroke="black" points="366.63,-67.46 377.16,-66.33 368.22,-60.64 366.63,-67.46"/>
</g>
<!-- 2341859095088* -->
<g id="node2" class="node">
<title>2341859095088*</title>
<ellipse fill="none" stroke="black" cx="170" cy="-45.5" rx="27" ry="18"/>
<text text-anchor="middle" x="170" y="-40.45" font-family="Times New Roman,serif" font-size="14.00">*</text>
</g>
<!-- 2341859095088*&#45;&gt;2341859095088 -->
<g id="edge1" class="edge">
<title>2341859095088*&#45;&gt;2341859095088</title>
<path fill="none" stroke="black" d="M197.44,-45.5C205.1,-45.5 213.82,-45.5 222.73,-45.5"/>
<polygon fill="black" stroke="black" points="222.53,-49 232.53,-45.5 222.53,-42 222.53,-49"/>
</g>
<!-- 2341859967696 -->
<g id="node3" class="node">
<title>2341859967696</title>
<polygon fill="none" stroke="black" points="0,-55.5 0,-91.5 107,-91.5 107,-55.5 0,-55.5"/>
<text text-anchor="middle" x="11.38" y="-68.7" font-family="Times New Roman,serif" font-size="14.00">b</text>
<polyline fill="none" stroke="black" points="22.75,-56 22.75,-91.5"/>
<text text-anchor="middle" x="64.88" y="-68.7" font-family="Times New Roman,serif" font-size="14.00">data &#45;3.0000</text>
</g>
<!-- 2341859967696&#45;&gt;2341859095088* -->
<g id="edge5" class="edge">
<title>2341859967696&#45;&gt;2341859095088*</title>
<path fill="none" stroke="black" d="M107.39,-60.57C116.15,-58.42 125.05,-56.25 133.26,-54.24"/>
<polygon fill="black" stroke="black" points="133.97,-57.67 142.85,-51.89 132.3,-50.87 133.97,-57.67"/>
</g>
<!-- 2341858974016 -->
<g id="node4" class="node">
<title>2341858974016</title>
<polygon fill="none" stroke="black" points="2.62,-0.5 2.62,-36.5 104.38,-36.5 104.38,-0.5 2.62,-0.5"/>
<text text-anchor="middle" x="13.62" y="-13.7" font-family="Times New Roman,serif" font-size="14.00">a</text>
<polyline fill="none" stroke="black" points="24.62,-1 24.62,-36.5"/>
<text text-anchor="middle" x="64.5" y="-13.7" font-family="Times New Roman,serif" font-size="14.00">data 2.0000</text>
</g>
<!-- 2341858974016&#45;&gt;2341859095088* -->
<g id="edge4" class="edge">
<title>2341858974016&#45;&gt;2341859095088*</title>
<path fill="none" stroke="black" d="M104.72,-30.34C114.16,-32.57 123.86,-34.86 132.78,-36.96"/>
<polygon fill="black" stroke="black" points="131.94,-40.36 142.48,-39.25 133.55,-33.54 131.94,-40.36"/>
</g>
<!-- 2341859968336 -->
<g id="node5" class="node">
<title>2341859968336</title>
<polygon fill="none" stroke="black" points="233,-82.5 233,-118.5 341.5,-118.5 341.5,-82.5 233,-82.5"/>
<text text-anchor="middle" x="244" y="-95.7" font-family="Times New Roman,serif" font-size="14.00">c</text>
<polyline fill="none" stroke="black" points="255,-83 255,-118.5"/>
<text text-anchor="middle" x="298.25" y="-95.7" font-family="Times New Roman,serif" font-size="14.00">data 10.0000</text>
</g>
<!-- 2341859968336&#45;&gt;2341859095392+ -->
<g id="edge3" class="edge">
<title>2341859968336&#45;&gt;2341859095392+</title>
<path fill="none" stroke="black" d="M341.83,-87.48C350.54,-85.37 359.37,-83.22 367.53,-81.24"/>
<polygon fill="black" stroke="black" points="368.16,-84.69 377.05,-78.93 366.51,-77.89 368.16,-84.69"/>
</g>
<!-- 2341859095392 -->
<g id="node6" class="node">
<title>2341859095392</title>
<polygon fill="none" stroke="black" points="467.5,-54.5 467.5,-90.5 570,-90.5 570,-54.5 467.5,-54.5"/>
<text text-anchor="middle" x="478.88" y="-67.7" font-family="Times New Roman,serif" font-size="14.00">d</text>
<polyline fill="none" stroke="black" points="490.25,-55 490.25,-90.5"/>
<text text-anchor="middle" x="530.12" y="-67.7" font-family="Times New Roman,serif" font-size="14.00">data 4.0000</text>
</g>
<!-- 2341859095392+&#45;&gt;2341859095392 -->
<g id="edge2" class="edge">
<title>2341859095392+&#45;&gt;2341859095392</title>
<path fill="none" stroke="black" d="M431.82,-72.5C439.21,-72.5 447.57,-72.5 456.1,-72.5"/>
<polygon fill="black" stroke="black" points="455.83,-76 465.83,-72.5 455.83,-69 455.83,-76"/>
</g>
</g>
</svg>
