<?xml version="1.0" encoding="UTF-8" standalone="no"?>
<!DOCTYPE svg PUBLIC "-//W3C//DTD SVG 1.1//EN"
 "http://www.w3.org/Graphics/SVG/1.1/DTD/svg11.dtd">
<!-- Generated by graphviz version 12.2.1 (20241206.2353)
 -->
<!-- Pages: 1 -->
<svg width="1140pt" height="154pt"
 viewBox="0.00 0.00 1139.75 154.00" xmlns="http://www.w3.org/2000/svg" xmlns:xlink="http://www.w3.org/1999/xlink">
<g id="graph0" class="graph" transform="scale(1 1) rotate(0) translate(4 150)">
<polygon fill="white" stroke="none" points="-4,4 -4,-150 1135.75,-150 1135.75,4 -4,4"/>
<!-- 2168916347904 -->
<g id="node1" class="node">
<title>2168916347904</title>
<polygon fill="none" stroke="black" points="631.12,-54.5 631.12,-90.5 814.88,-90.5 814.88,-54.5 631.12,-54.5"/>
<text text-anchor="middle" x="642.5" y="-67.7" font-family="Times New Roman,serif" font-size="14.00">d</text>
<polyline fill="none" stroke="black" points="653.88,-55 653.88,-90.5"/>
<text text-anchor="middle" x="693.75" y="-67.7" font-family="Times New Roman,serif" font-size="14.00">data 4.0000</text>
<polyline fill="none" stroke="black" points="733.62,-55 733.62,-90.5"/>
<text text-anchor="middle" x="774.25" y="-67.7" font-family="Times New Roman,serif" font-size="14.00">grad 0.0000</text>
</g>
<!-- 2168941569328* -->
<g id="node6" class="node">
<title>2168941569328*</title>
<ellipse fill="none" stroke="black" cx="879" cy="-99.5" rx="27" ry="18"/>
<text text-anchor="middle" x="879" y="-94.45" font-family="Times New Roman,serif" font-size="14.00">*</text>
</g>
<!-- 2168916347904&#45;&gt;2168941569328* -->
<g id="edge7" class="edge">
<title>2168916347904&#45;&gt;2168941569328*</title>
<path fill="none" stroke="black" d="M815.36,-88.52C824.5,-90.12 833.36,-91.67 841.4,-93.08"/>
<polygon fill="black" stroke="black" points="840.58,-96.49 851.04,-94.77 841.79,-89.6 840.58,-96.49"/>
</g>
<!-- 2168916347904+ -->
<g id="node2" class="node">
<title>2168916347904+</title>
<ellipse fill="none" stroke="black" cx="567" cy="-72.5" rx="27" ry="18"/>
<text text-anchor="middle" x="567" y="-67.45" font-family="Times New Roman,serif" font-size="14.00">+</text>
</g>
<!-- 2168916347904+&#45;&gt;2168916347904 -->
<g id="edge1" class="edge">
<title>2168916347904+&#45;&gt;2168916347904</title>
<path fill="none" stroke="black" d="M594.47,-72.5C601.87,-72.5 610.38,-72.5 619.43,-72.5"/>
<polygon fill="black" stroke="black" points="619.17,-76 629.17,-72.5 619.17,-69 619.17,-76"/>
</g>
<!-- 2168916184144 -->
<g id="node3" class="node">
<title>2168916184144</title>
<polygon fill="none" stroke="black" points="0,-55.5 0,-91.5 188.25,-91.5 188.25,-55.5 0,-55.5"/>
<text text-anchor="middle" x="11.38" y="-68.7" font-family="Times New Roman,serif" font-size="14.00">b</text>
<polyline fill="none" stroke="black" points="22.75,-56 22.75,-91.5"/>
<text text-anchor="middle" x="64.88" y="-68.7" font-family="Times New Roman,serif" font-size="14.00">data &#45;3.0000</text>
<polyline fill="none" stroke="black" points="107,-56 107,-91.5"/>
<text text-anchor="middle" x="147.62" y="-68.7" font-family="Times New Roman,serif" font-size="14.00">grad 0.0000</text>
</g>
<!-- 2168916346848* -->
<g id="node10" class="node">
<title>2168916346848*</title>
<ellipse fill="none" stroke="black" cx="251.25" cy="-45.5" rx="27" ry="18"/>
<text text-anchor="middle" x="251.25" y="-40.45" font-family="Times New Roman,serif" font-size="14.00">*</text>
</g>
<!-- 2168916184144&#45;&gt;2168916346848* -->
<g id="edge4" class="edge">
<title>2168916184144&#45;&gt;2168916346848*</title>
<path fill="none" stroke="black" d="M188.49,-56.65C197.36,-55.05 205.93,-53.5 213.73,-52.09"/>
<polygon fill="black" stroke="black" points="214.2,-55.56 223.42,-50.34 212.95,-48.68 214.2,-55.56"/>
</g>
<!-- 2168916184336 -->
<g id="node4" class="node">
<title>2168916184336</title>
<polygon fill="none" stroke="black" points="314.25,-82.5 314.25,-118.5 504,-118.5 504,-82.5 314.25,-82.5"/>
<text text-anchor="middle" x="325.25" y="-95.7" font-family="Times New Roman,serif" font-size="14.00">c</text>
<polyline fill="none" stroke="black" points="336.25,-83 336.25,-118.5"/>
<text text-anchor="middle" x="379.5" y="-95.7" font-family="Times New Roman,serif" font-size="14.00">data 10.0000</text>
<polyline fill="none" stroke="black" points="422.75,-83 422.75,-118.5"/>
<text text-anchor="middle" x="463.38" y="-95.7" font-family="Times New Roman,serif" font-size="14.00">grad 0.0000</text>
</g>
<!-- 2168916184336&#45;&gt;2168916347904+ -->
<g id="edge9" class="edge">
<title>2168916184336&#45;&gt;2168916347904+</title>
<path fill="none" stroke="black" d="M504.39,-83.57C513.16,-81.99 521.65,-80.47 529.37,-79.08"/>
<polygon fill="black" stroke="black" points="529.73,-82.57 538.95,-77.36 528.49,-75.68 529.73,-82.57"/>
</g>
<!-- 2168941569328 -->
<g id="node5" class="node">
<title>2168941569328</title>
<polygon fill="none" stroke="black" points="942,-81.5 942,-117.5 1131.75,-117.5 1131.75,-81.5 942,-81.5"/>
<text text-anchor="middle" x="954.12" y="-94.7" font-family="Times New Roman,serif" font-size="14.00">L</text>
<polyline fill="none" stroke="black" points="966.25,-82 966.25,-117.5"/>
<text text-anchor="middle" x="1008.38" y="-94.7" font-family="Times New Roman,serif" font-size="14.00">data &#45;8.0000</text>
<polyline fill="none" stroke="black" points="1050.5,-82 1050.5,-117.5"/>
<text text-anchor="middle" x="1091.12" y="-94.7" font-family="Times New Roman,serif" font-size="14.00">grad 1.0000</text>
</g>
<!-- 2168941569328*&#45;&gt;2168941569328 -->
<g id="edge2" class="edge">
<title>2168941569328*&#45;&gt;2168941569328</title>
<path fill="none" stroke="black" d="M906.44,-99.5C913.59,-99.5 921.78,-99.5 930.49,-99.5"/>
<polygon fill="black" stroke="black" points="930.26,-103 940.26,-99.5 930.26,-96 930.26,-103"/>
</g>
<!-- 2168907670960 -->
<g id="node7" class="node">
<title>2168907670960</title>
<polygon fill="none" stroke="black" points="2.62,-0.5 2.62,-36.5 185.62,-36.5 185.62,-0.5 2.62,-0.5"/>
<text text-anchor="middle" x="13.62" y="-13.7" font-family="Times New Roman,serif" font-size="14.00">a</text>
<polyline fill="none" stroke="black" points="24.62,-1 24.62,-36.5"/>
<text text-anchor="middle" x="64.5" y="-13.7" font-family="Times New Roman,serif" font-size="14.00">data 2.0000</text>
<polyline fill="none" stroke="black" points="104.38,-1 104.38,-36.5"/>
<text text-anchor="middle" x="145" y="-13.7" font-family="Times New Roman,serif" font-size="14.00">grad 0.0000</text>
</g>
<!-- 2168907670960&#45;&gt;2168916346848* -->
<g id="edge5" class="edge">
<title>2168907670960&#45;&gt;2168916346848*</title>
<path fill="none" stroke="black" d="M185.81,-34.28C195.45,-35.96 204.82,-37.59 213.29,-39.07"/>
<polygon fill="black" stroke="black" points="212.65,-42.51 223.1,-40.77 213.85,-35.61 212.65,-42.51"/>
</g>
<!-- 2168941569488 -->
<g id="node8" class="node">
<title>2168941569488</title>
<polygon fill="none" stroke="black" points="630,-109.5 630,-145.5 816,-145.5 816,-109.5 630,-109.5"/>
<text text-anchor="middle" x="640.25" y="-122.7" font-family="Times New Roman,serif" font-size="14.00">f</text>
<polyline fill="none" stroke="black" points="650.5,-110 650.5,-145.5"/>
<text text-anchor="middle" x="692.62" y="-122.7" font-family="Times New Roman,serif" font-size="14.00">data &#45;2.0000</text>
<polyline fill="none" stroke="black" points="734.75,-110 734.75,-145.5"/>
<text text-anchor="middle" x="775.38" y="-122.7" font-family="Times New Roman,serif" font-size="14.00">grad 0.0000</text>
</g>
<!-- 2168941569488&#45;&gt;2168941569328* -->
<g id="edge6" class="edge">
<title>2168941569488&#45;&gt;2168941569328*</title>
<path fill="none" stroke="black" d="M816.25,-110.73C825.1,-109.12 833.67,-107.56 841.46,-106.14"/>
<polygon fill="black" stroke="black" points="841.93,-109.62 851.15,-104.38 840.68,-102.73 841.93,-109.62"/>
</g>
<!-- 2168916346848 -->
<g id="node9" class="node">
<title>2168916346848</title>
<polygon fill="none" stroke="black" points="315.38,-27.5 315.38,-63.5 502.88,-63.5 502.88,-27.5 315.38,-27.5"/>
<text text-anchor="middle" x="326.38" y="-40.7" font-family="Times New Roman,serif" font-size="14.00">e</text>
<polyline fill="none" stroke="black" points="337.38,-28 337.38,-63.5"/>
<text text-anchor="middle" x="379.5" y="-40.7" font-family="Times New Roman,serif" font-size="14.00">data &#45;6.0000</text>
<polyline fill="none" stroke="black" points="421.62,-28 421.62,-63.5"/>
<text text-anchor="middle" x="462.25" y="-40.7" font-family="Times New Roman,serif" font-size="14.00">grad 0.0000</text>
</g>
<!-- 2168916346848&#45;&gt;2168916347904+ -->
<g id="edge8" class="edge">
<title>2168916346848&#45;&gt;2168916347904+</title>
<path fill="none" stroke="black" d="M503.05,-61.6C512.25,-63.19 521.16,-64.73 529.24,-66.13"/>
<polygon fill="black" stroke="black" points="528.48,-69.55 538.93,-67.81 529.68,-62.66 528.48,-69.55"/>
</g>
<!-- 2168916346848*&#45;&gt;2168916346848 -->
<g id="edge3" class="edge">
<title>2168916346848*&#45;&gt;2168916346848</title>
<path fill="none" stroke="black" d="M278.69,-45.5C286.1,-45.5 294.64,-45.5 303.71,-45.5"/>
<polygon fill="black" stroke="black" points="303.51,-49 313.51,-45.5 303.51,-42 303.51,-49"/>
</g>
</g>
</svg>
