<?xml version="1.0" encoding="UTF-8" standalone="no"?>
<!DOCTYPE svg PUBLIC "-//W3C//DTD SVG 1.1//EN"
 "http://www.w3.org/Graphics/SVG/1.1/DTD/svg11.dtd">
<!-- Generated by graphviz version 12.2.1 (20241206.2353)
 -->
<!-- Pages: 1 -->
<svg width="1138pt" height="128pt"
 viewBox="0.00 0.00 1137.50 128.00" xmlns="http://www.w3.org/2000/svg" xmlns:xlink="http://www.w3.org/1999/xlink">
<g id="graph0" class="graph" transform="scale(1 1) rotate(0) translate(4 124)">
<polygon fill="white" stroke="none" points="-4,4 -4,-124 1133.5,-124 1133.5,4 -4,4"/>
<!-- 2014869288528 -->
<g id="node1" class="node">
<title>2014869288528</title>
<polygon fill="none" stroke="black" points="944.25,-54.5 944.25,-90.5 1129.5,-90.5 1129.5,-54.5 944.25,-54.5"/>
<text text-anchor="middle" x="954.12" y="-67.7" font-family="Times New Roman,serif" font-size="14.00"> </text>
<polyline fill="none" stroke="black" points="964,-55 964,-90.5"/>
<text text-anchor="middle" x="1006.12" y="-67.7" font-family="Times New Roman,serif" font-size="14.00">data &#45;7.2865</text>
<polyline fill="none" stroke="black" points="1048.25,-55 1048.25,-90.5"/>
<text text-anchor="middle" x="1088.88" y="-67.7" font-family="Times New Roman,serif" font-size="14.00">grad 0.0000</text>
</g>
<!-- 2014869288528* -->
<g id="node2" class="node">
<title>2014869288528*</title>
<ellipse fill="none" stroke="black" cx="881.25" cy="-72.5" rx="27" ry="18"/>
<text text-anchor="middle" x="881.25" y="-67.45" font-family="Times New Roman,serif" font-size="14.00">*</text>
</g>
<!-- 2014869288528*&#45;&gt;2014869288528 -->
<g id="edge1" class="edge">
<title>2014869288528*&#45;&gt;2014869288528</title>
<path fill="none" stroke="black" d="M908.66,-72.5C915.7,-72.5 923.75,-72.5 932.3,-72.5"/>
<polygon fill="black" stroke="black" points="932.29,-76 942.29,-72.5 932.29,-69 932.29,-76"/>
</g>
<!-- 2014876487840 -->
<g id="node3" class="node">
<title>2014876487840</title>
<polygon fill="none" stroke="black" points="319.88,-55.5 319.88,-91.5 505.12,-91.5 505.12,-55.5 319.88,-55.5"/>
<text text-anchor="middle" x="329.75" y="-68.7" font-family="Times New Roman,serif" font-size="14.00"> </text>
<polyline fill="none" stroke="black" points="339.62,-56 339.62,-91.5"/>
<text text-anchor="middle" x="381.75" y="-68.7" font-family="Times New Roman,serif" font-size="14.00">data &#45;6.2624</text>
<polyline fill="none" stroke="black" points="423.88,-56 423.88,-91.5"/>
<text text-anchor="middle" x="464.5" y="-68.7" font-family="Times New Roman,serif" font-size="14.00">grad 0.0000</text>
</g>
<!-- 2014869288272+ -->
<g id="node8" class="node">
<title>2014869288272+</title>
<ellipse fill="none" stroke="black" cx="569.25" cy="-45.5" rx="27" ry="18"/>
<text text-anchor="middle" x="569.25" y="-40.45" font-family="Times New Roman,serif" font-size="14.00">+</text>
</g>
<!-- 2014876487840&#45;&gt;2014869288272+ -->
<g id="edge9" class="edge">
<title>2014876487840&#45;&gt;2014869288272+</title>
<path fill="none" stroke="black" d="M505.31,-56.89C514.49,-55.23 523.39,-53.62 531.47,-52.15"/>
<polygon fill="black" stroke="black" points="531.95,-55.63 541.16,-50.4 530.7,-48.74 531.95,-55.63"/>
</g>
<!-- 2014876487840* -->
<g id="node4" class="node">
<title>2014876487840*</title>
<ellipse fill="none" stroke="black" cx="255.75" cy="-73.5" rx="27" ry="18"/>
<text text-anchor="middle" x="255.75" y="-68.45" font-family="Times New Roman,serif" font-size="14.00">*</text>
</g>
<!-- 2014876487840*&#45;&gt;2014876487840 -->
<g id="edge2" class="edge">
<title>2014876487840*&#45;&gt;2014876487840</title>
<path fill="none" stroke="black" d="M283,-73.5C290.42,-73.5 298.97,-73.5 308.07,-73.5"/>
<polygon fill="black" stroke="black" points="307.88,-77 317.88,-73.5 307.88,-70 307.88,-77"/>
</g>
<!-- 2014876241168 -->
<g id="node5" class="node">
<title>2014876241168</title>
<polygon fill="none" stroke="black" points="0,-83.5 0,-119.5 192.75,-119.5 192.75,-83.5 0,-83.5"/>
<text text-anchor="middle" x="11.38" y="-96.7" font-family="Times New Roman,serif" font-size="14.00">b</text>
<polyline fill="none" stroke="black" points="22.75,-84 22.75,-119.5"/>
<text text-anchor="middle" x="64.88" y="-96.7" font-family="Times New Roman,serif" font-size="14.00">data &#45;3.0400</text>
<polyline fill="none" stroke="black" points="107,-84 107,-119.5"/>
<text text-anchor="middle" x="149.88" y="-96.7" font-family="Times New Roman,serif" font-size="14.00">grad &#45;4.0000</text>
</g>
<!-- 2014876241168&#45;&gt;2014876487840* -->
<g id="edge8" class="edge">
<title>2014876241168&#45;&gt;2014876487840*</title>
<path fill="none" stroke="black" d="M193,-84.49C201.81,-82.92 210.32,-81.41 218.06,-80.03"/>
<polygon fill="black" stroke="black" points="218.43,-83.52 227.66,-78.32 217.21,-76.62 218.43,-83.52"/>
</g>
<!-- 2014901953840 -->
<g id="node6" class="node">
<title>2014901953840</title>
<polygon fill="none" stroke="black" points="632.25,-82.5 632.25,-118.5 818.25,-118.5 818.25,-82.5 632.25,-82.5"/>
<text text-anchor="middle" x="642.5" y="-95.7" font-family="Times New Roman,serif" font-size="14.00">f</text>
<polyline fill="none" stroke="black" points="652.75,-83 652.75,-118.5"/>
<text text-anchor="middle" x="694.88" y="-95.7" font-family="Times New Roman,serif" font-size="14.00">data &#45;1.9600</text>
<polyline fill="none" stroke="black" points="737,-83 737,-118.5"/>
<text text-anchor="middle" x="777.62" y="-95.7" font-family="Times New Roman,serif" font-size="14.00">grad 4.0000</text>
</g>
<!-- 2014901953840&#45;&gt;2014869288528* -->
<g id="edge7" class="edge">
<title>2014901953840&#45;&gt;2014869288528*</title>
<path fill="none" stroke="black" d="M818.5,-83.73C827.35,-82.12 835.92,-80.56 843.71,-79.14"/>
<polygon fill="black" stroke="black" points="844.18,-82.62 853.4,-77.38 842.93,-75.73 844.18,-82.62"/>
</g>
<!-- 2014869288272 -->
<g id="node7" class="node">
<title>2014869288272</title>
<polygon fill="none" stroke="black" points="634.88,-27.5 634.88,-63.5 815.62,-63.5 815.62,-27.5 634.88,-27.5"/>
<text text-anchor="middle" x="644.75" y="-40.7" font-family="Times New Roman,serif" font-size="14.00"> </text>
<polyline fill="none" stroke="black" points="654.62,-28 654.62,-63.5"/>
<text text-anchor="middle" x="694.5" y="-40.7" font-family="Times New Roman,serif" font-size="14.00">data 3.7176</text>
<polyline fill="none" stroke="black" points="734.38,-28 734.38,-63.5"/>
<text text-anchor="middle" x="775" y="-40.7" font-family="Times New Roman,serif" font-size="14.00">grad 0.0000</text>
</g>
<!-- 2014869288272&#45;&gt;2014869288528* -->
<g id="edge4" class="edge">
<title>2014869288272&#45;&gt;2014869288528*</title>
<path fill="none" stroke="black" d="M815.83,-61.21C825.46,-62.89 834.81,-64.53 843.27,-66.02"/>
<polygon fill="black" stroke="black" points="842.63,-69.46 853.09,-67.74 843.84,-62.56 842.63,-69.46"/>
</g>
<!-- 2014869288272+&#45;&gt;2014869288272 -->
<g id="edge3" class="edge">
<title>2014869288272+&#45;&gt;2014869288272</title>
<path fill="none" stroke="black" d="M596.72,-45.5C604.51,-45.5 613.53,-45.5 623.11,-45.5"/>
<polygon fill="black" stroke="black" points="623.05,-49 633.05,-45.5 623.05,-42 623.05,-49"/>
</g>
<!-- 2014867596720 -->
<g id="node9" class="node">
<title>2014867596720</title>
<polygon fill="none" stroke="black" points="4.88,-28.5 4.88,-64.5 187.88,-64.5 187.88,-28.5 4.88,-28.5"/>
<text text-anchor="middle" x="15.88" y="-41.7" font-family="Times New Roman,serif" font-size="14.00">a</text>
<polyline fill="none" stroke="black" points="26.88,-29 26.88,-64.5"/>
<text text-anchor="middle" x="66.75" y="-41.7" font-family="Times New Roman,serif" font-size="14.00">data 2.0600</text>
<polyline fill="none" stroke="black" points="106.62,-29 106.62,-64.5"/>
<text text-anchor="middle" x="147.25" y="-41.7" font-family="Times New Roman,serif" font-size="14.00">grad 6.0000</text>
</g>
<!-- 2014867596720&#45;&gt;2014876487840* -->
<g id="edge5" class="edge">
<title>2014867596720&#45;&gt;2014876487840*</title>
<path fill="none" stroke="black" d="M188.01,-62.05C198.46,-63.84 208.62,-65.59 217.74,-67.15"/>
<polygon fill="black" stroke="black" points="217.11,-70.59 227.56,-68.84 218.3,-63.69 217.11,-70.59"/>
</g>
<!-- 2014876241360 -->
<g id="node10" class="node">
<title>2014876241360</title>
<polygon fill="none" stroke="black" points="318.75,-0.5 318.75,-36.5 506.25,-36.5 506.25,-0.5 318.75,-0.5"/>
<text text-anchor="middle" x="329.75" y="-13.7" font-family="Times New Roman,serif" font-size="14.00">c</text>
<polyline fill="none" stroke="black" points="340.75,-1 340.75,-36.5"/>
<text text-anchor="middle" x="380.62" y="-13.7" font-family="Times New Roman,serif" font-size="14.00">data 9.9800</text>
<polyline fill="none" stroke="black" points="420.5,-1 420.5,-36.5"/>
<text text-anchor="middle" x="463.38" y="-13.7" font-family="Times New Roman,serif" font-size="14.00">grad &#45;2.0000</text>
</g>
<!-- 2014876241360&#45;&gt;2014869288272+ -->
<g id="edge6" class="edge">
<title>2014876241360&#45;&gt;2014869288272+</title>
<path fill="none" stroke="black" d="M506.64,-34.75C515.4,-36.28 523.88,-37.76 531.59,-39.1"/>
<polygon fill="black" stroke="black" points="530.72,-42.51 541.18,-40.78 531.93,-35.61 530.72,-42.51"/>
</g>
</g>
</svg>
